<svg height="446pt" viewBox="0 -4 446.39081 446" width="446pt" xmlns="http://www.w3.org/2000/svg" xmlns:xlink="http://www.w3.org/1999/xlink"><linearGradient id="a"><stop offset=".322" stop-color="#a163f5"/><stop offset=".466" stop-color="#b074ee"/><stop offset=".752" stop-color="#d8a1dd"/><stop offset=".898" stop-color="#efbad3"/></linearGradient><linearGradient id="b" gradientUnits="userSpaceOnUse" x1="223.194085" x2="223.194085" xlink:href="#a" y1="448.907274" y2="-7.136726"/><linearGradient id="c" gradientUnits="userSpaceOnUse" x1="68.538085" x2="68.538085" xlink:href="#a" y1="448.907274" y2="-7.136726"/><linearGradient id="d" gradientUnits="userSpaceOnUse" x1="243.194085" x2="243.194085" xlink:href="#a" y1="448.907274" y2="-7.136726"/><path d="m396.066406 254.878906-2.144531 1.15625c-9.332031-11.199218-25.394531-15.523437-37.644531-9.316406-.046875.023438-.089844.046875-.136719.070312l-5.277344 2.84375c-13.28125-11.164062-32.121093-12.835937-47.160156-4.179687l-29.074219 15.808594h-38.699218c-8.359376-.011719-16.613282-1.902344-24.144532-5.53125l-5.328125-2.578125c-31.015625-15.09375-67.882812-11.492188-95.390625 9.316406-.132812.097656-.261718.203125-.382812.3125l-12.871094 11.457031c-4.789062 4.253907-10.441406 7.421875-16.570312 9.289063l-7.253907-23.792969c-.769531-2.523437-3.101562-4.25-5.738281-4.25h-62.25c-1.71875.003906-3.355469.738281-4.492188 2.023437-1.140624 1.289063-1.671874 3-1.4648432 4.703126l20.7500002 170.132812c.367187 3.011719 2.925781 5.273438 5.957031 5.273438h93.363281c1.902344 0 3.691407-.902344 4.824219-2.429688s1.472656-3.5.917969-5.320312l-12.226563-40.101563 38.066406-24.058594c5.0625-2.796875 11.003907-3.566406 16.613282-2.148437.125.03125.25.058594.375.082031l77.707031 14.308594c21.160156 3.785156 42.976563.707031 62.261719-8.789063.257812-.128906.5-.273437.734375-.433594l134.398437-92.277343c2.617188-1.800781 3.382813-5.324219 1.746094-8.042969-10.214844-17.015625-32.011719-22.976562-49.464844-13.527344zm-34.300781 2.515625c6.898437-3.457031 15.574219-.691406 21.199219 4.550781l-50.71875 27.363282-2.78125 1.464844c-1.589844-4.441407-3.882813-8.601563-6.785156-12.324219zm-52.257813-1.4375.144532-.082031c9.121094-5.269531 20.371094-5.234375 29.457031.09375l-25.480469 13.730469c-4.792968-3.472657-10.230468-5.953125-15.996094-7.285157zm-277.449218 169.660157-19.28125-158.132813h51.023437l48.210938 158.132813zm270.890625-67.027344c-16.878907 8.214844-35.929688 10.859375-54.40625 7.554687l-77.507813-14.273437c-8.574218-2.113282-17.632812-.886719-25.335937 3.4375-.09375.050781-.1875.105468-.277344.164062l-35.429687 22.394532-25.257813-82.847657c7.789063-2.375 14.96875-6.40625 21.050781-11.816406l12.683594-11.296875c23.910156-17.96875 55.867188-21.039062 82.757812-7.953125l5.332032 2.578125c9.160156 4.414062 19.195312 6.714844 29.367187 6.726562h51.691407c15.476562.023438 28.789062 10.953126 31.816406 26.128907l-37.203125-1.679688c-13.632813-.613281-27.296875.015625-40.8125 1.886719-3.257813.480469-5.515625 3.496094-5.0625 6.757812.449219 3.257813 3.445312 5.546876 6.707031 5.125 12.792969-1.765624 25.722656-2.363281 38.625-1.78125l44.089844 2c.09375 0 .183594.003907.273437.003907 3.3125 0 6-2.683594 6-6 0-.898438-.035156-1.785157-.085937-2.671875l5.929687-3.125 63.871094-34.460938c9.925781-5.375 22.222656-3.460937 30.050781 4.671875zm0 0" fill="url(#b)"/><path d="m50.09375 401.847656c0 10.191406 8.257812 18.453125 18.449219 18.453125 10.1875 0 18.449219-8.261719 18.449219-18.449219 0-10.191406-8.261719-18.449218-18.449219-18.449218-10.183594.011718-18.4375 8.261718-18.449219 18.445312zm18.449219-6.445312c3.5625 0 6.449219 2.886718 6.449219 6.449218 0 3.558594-2.886719 6.449219-6.449219 6.449219s-6.449219-2.890625-6.449219-6.453125c.003906-3.554687 2.886719-6.441406 6.445312-6.445312zm0 0" fill="url(#c)"/><g fill="url(#d)"><path d="m243.195312 200.769531c46.707032 0 84.570313-37.863281 84.570313-84.574219 0-46.707031-37.863281-84.570312-84.570313-84.570312-46.707031 0-84.574218 37.863281-84.570312 84.574219.050781 46.683593 37.882812 84.515625 84.570312 84.570312zm0-157.144531c40.078126 0 72.570313 32.492188 72.570313 72.570312 0 40.082032-32.488281 72.574219-72.570313 72.574219-40.082031 0-72.570312-32.492187-72.570312-72.570312.042969-40.0625 32.507812-72.527344 72.570312-72.574219zm0 0"/><path d="m160.78125 197.746094c.121094.164062.25.324218.390625.476562.148437.136719.308594.265625.472656.386719 45.144531 44.785156 117.957031 44.785156 163.101563 0 .164062-.121094.324218-.25.476562-.386719.136719-.152344.269532-.3125.390625-.476562 44.78125-45.144532 44.78125-117.953125 0-163.097656-.230469-.34375-.523437-.636719-.867187-.863282-45.144532-44.785156-117.957032-44.785156-163.101563 0-.34375.226563-.636719.519532-.863281.863282-44.78125 45.144531-44.78125 117.953124 0 163.097656zm-16.15625-87.546875h-5.253906c1.335937-23.40625 10.574218-45.664063 26.199218-63.136719l3.679688 3.675781c2.347656 2.3125 6.121094 2.296875 8.449219-.035156 2.332031-2.328125 2.34375-6.101563.035156-8.449219l-3.675781-3.675781c17.472656-15.628906 39.730468-24.867187 63.136718-26.203125v5.25c0 3.316406 2.683594 6 6 6 3.3125 0 6-2.683594 6-6v-5.25c23.402344 1.335938 45.660157 10.574219 63.132813 26.199219l-3.675781 3.679687c-2.3125 2.347656-2.296875 6.121094.035156 8.449219 2.328125 2.328125 6.101562 2.34375 8.449219.035156l3.679687-3.679687c15.625 17.476562 24.859375 39.734375 26.199219 63.136718h-5.253906c-3.3125 0-6 2.6875-6 6s2.6875 6 6 6h5.253906c-1.339844 23.402344-10.574219 45.660157-26.199219 63.136719l-3.679687-3.679687c-2.347657-2.308594-6.121094-2.292969-8.449219.035156-2.332031 2.328125-2.347656 6.101562-.035156 8.449219l3.675781 3.679687c-17.472656 15.628906-39.730469 24.863282-63.132813 26.203125v-5.25c0-3.316406-2.6875-6-6-6-3.316406 0-6 2.683594-6 6v5.25c-23.40625-1.335937-45.664062-10.574219-63.136718-26.199219l3.675781-3.679687c2.3125-2.347656 2.296875-6.121094-.03125-8.449219-2.332031-2.332031-6.101563-2.347656-8.453125-.035156l-3.675781 3.675781c-15.625-17.472656-24.863281-39.730469-26.199219-63.132812h5.25c3.3125 0 6-2.6875 6-6 0-3.316407-2.6875-6-6-6zm0 0"/><path d="m219.625 158.742188h7.414062v5.964843c0 3.3125 2.6875 6 6 6 3.316407 0 6-2.6875 6-6v-5.964843h5.167969v5.964843c0 3.3125 2.683594 6 6 6 3.3125 0 6-2.6875 6-6v-7.1875c8.21875-2.710937 14.355469-9.621093 16.078125-18.105469 1.71875-8.480468-1.238281-17.234374-7.753906-22.9375 6.515625-5.699218 9.472656-14.453124 7.753906-22.9375-1.722656-8.480468-7.859375-15.390624-16.078125-18.101562v-7.75c0-3.3125-2.6875-6-6-6-3.316406 0-6 2.6875-6 6v6.527344h-5.167969v-6.527344c0-3.3125-2.683593-6-6-6-3.3125 0-6 2.6875-6 6v6.527344h-7.414062c-3.316406 0-6 2.6875-6 6v72.527344c0 3.3125 2.683594 6 6 6zm41.140625-24.136719c-.007813 6.699219-5.433594 12.125-12.132813 12.132812h-23.007812v-24.261719h23.007812c6.695313.007813 12.121094 5.433594 12.132813 12.128907zm-35.140625-48.394531h23.007812c4.359376-.039063 8.40625 2.265624 10.597657 6.035156 2.191406 3.769531 2.191406 8.425781 0 12.195312-2.191407 3.769532-6.238281 6.074219-10.597657 6.035156h-23.007812zm0 0"/></g></svg>
