<svg id="_x33_0" enable-background="new 0 0 64 64" height="512" viewBox="0 0 64 64" width="512" xmlns="http://www.w3.org/2000/svg" xmlns:xlink="http://www.w3.org/1999/xlink"><linearGradient id="SVGID_1_" gradientUnits="userSpaceOnUse" x1="32" x2="32" y1="63" y2="1"><stop offset="0" stop-color="#9f2fff"/><stop offset="1" stop-color="#0bb1d3"/></linearGradient><path d="m56.252 7.335 1.495 1.329-8.705 9.792-3.75-3.75 1.414-1.414 2.25 2.25zm6.748 4.665v47h-20v4h-42v-17.902c0-2.224.765-4.405 2.154-6.142 1.483-1.853 3.585-3.106 5.919-3.531l7.08-1.287.506-2.53c-2.521-1.407-4.427-3.776-5.232-6.608h-.396c-2.206 0-4-1.794-4-4 0-.936.337-1.787.878-2.469l-.756-4.537c-.102-.606-.153-1.223-.153-1.835 0-6.153 5.006-11.159 11.159-11.159h7.682c6.153 0 11.159 5.006 11.159 11.159 0 .611-.051 1.229-.152 1.834l-.501 3.007h5.867c-.77-1.502-1.214-3.199-1.214-5 0-6.065 4.935-11 11-11s11 4.935 11 11zm-30.051 11h.081c1.103 0 2-.897 2-2s-.897-2-2-2h-.03v3c0 .338-.021.67-.051 1zm-23.949-10.841c0 .502.042 1.009.125 1.506l.596 3.573c.412-.144.848-.238 1.31-.238h.402c.648-2.284 2.01-4.344 3.934-5.798l.801-.605.602.803c1.691 2.254 4.382 3.6 7.2 3.6h5.03c1.474 0 2.75.81 3.444 2h.587c.44 0 .856.089 1.252.22l.593-3.555c.082-.497.124-1.004.124-1.506 0-5.05-4.109-9.159-9.159-9.159h-7.682c-5.05 0-9.159 4.109-9.159 9.159zm2.051 10.841c-.03-.33-.051-.662-.051-1v-2.025c0-.327.028-.651.058-.975h-.027c-1.103 0-2 .897-2 2s.897 2 2 2zm10.949 8c4.962 0 9-4.038 9-9v-3c0-1.103-.897-2-2-2h-5.031c-3.09 0-6.056-1.324-8.126-3.587-1.795 1.689-2.843 4.078-2.843 6.562v2.025c0 4.962 4.038 9 9 9zm15 2h-9.38l.227 1.138 7.08 1.288c.718.13 1.41.348 2.073.629zm-18.82 28h7.639l-2.667-16h-2.306zm5.592-20.301-1.772-1.418-1.772 1.418.558 2.301h2.428zm2.827-.301 1.771-4.133-1.178-.214-3.444 2.066zm-8.066-7.966-.415 2.073 3.882 2.329 3.881-2.329-.415-2.073c-1.091.363-2.254.568-3.466.568s-2.375-.205-3.467-.568zm-2.903 3.833 1.771 4.133 2.851-2.281-3.444-2.066zm-12.63 24.735h6v-14h2v14h5.153l2.827-16.963-.476-1.96-1.906 1.524-2.987-6.969-4.181.76c-1.859.338-3.534 1.337-4.715 2.813-1.106 1.384-1.715 3.121-1.715 4.893zm38-15.902c0-1.771-.609-3.509-1.716-4.892-1.181-1.477-2.855-2.476-4.715-2.813l-4.181-.761-2.987 6.969-1.906-1.524-.476 1.96 2.828 16.963h5.153v-14h2v14h6zm2 5.902h4v-4h-4zm18 6v-30h-29.214c-.821 1.6-2.019 2.973-3.481 4h10.695v6.187c.684.504 1.307 1.096 1.846 1.769 1.369 1.711 2.128 3.854 2.15 6.044h6.004v8h-6v4zm0-38.695c-1.992 2.834-5.28 4.695-9 4.695-3.408 0-6.459-1.559-8.479-4h-7.047c.345.591.556 1.268.556 2 0 2.206-1.794 4-4 4h27.97zm0-6.305c0-4.962-4.038-9-9-9s-9 4.038-9 9 4.038 9 9 9 9-4.038 9-9zm-10 33h8v8h-8zm2 6h4v-4h-4zm-10-18h16v-2h-16zm0 4h16v-2h-16zm8 2h-8v2h8zm2 0v2h2v-2zm4 2h2v-2h-2z" fill="url(#SVGID_1_)"/></svg>
